Coordinates
version=1
nRows=10
nColumns=40
inDegrees=yes

Units are S.I. units (second, meters, Newtons, ...)
Angles are in degrees.

endheader
time	pelvis_tilt	pelvis_list	pelvis_rotation	pelvis_tx	pelvis_ty	pelvis_tz	hip_flexion_r	hip_adduction_r	hip_rotation_r	knee_angle_r	knee_angle_r_beta	ankle_angle_r	subtalar_angle_r	mtp_angle_r	hip_flexion_l	hip_adduction_l	hip_rotation_l	knee_angle_l	knee_angle_l_beta	ankle_angle_l	subtalar_angle_l	mtp_angle_l	lumbar_extension	lumbar_bending	lumbar_rotation	arm_flex_r	arm_add_r	arm_rot_r	elbow_flex_r	pro_sup_r	wrist_flex_r	wrist_dev_r	arm_flex_l	arm_add_l	arm_rot_l	elbow_flex_l	pro_sup_l	wrist_flex_l	wrist_dev_l
     29.68500000	     -3.93707367	     -5.61810215	      4.56954517	      1.07700119	      0.92855484	      0.47286949	      5.60395532	      4.50243710	    -15.71837227	     12.95704554	     12.95704554	     12.89398569	     -4.75768734	     -3.22575604	     37.86635379	    -11.76924672	      0.96573950	     50.30087348	     50.30087348	      9.92418346	    -19.16412277	     19.38268748	     -9.79340975	      4.79041980	      1.79565867	     24.16371110	    -14.55496243	     -4.82857292	     71.03198881	     44.87894689	      0.00000000	      0.00000000	      3.37580903	     -5.98443782	     -6.94817915	     35.29470953	     46.95687357	      0.00000000	      0.00000000
     29.69657143	     -4.05532597	     -5.52007941	      4.81399325	      1.07585916	      0.92807547	      0.47205346	      4.81183597	      4.42957467	    -16.14845456	     12.33605127	     12.33605127	     13.13126777	     -4.04471058	     -3.65169972	     38.03146002	    -10.92660038	      0.97124202	     46.02350640	     46.02350640	      9.31771567	    -18.93062785	     17.09578490	     -9.77945080	      4.80160190	      2.66384575	     25.54010869	    -15.59250483	     -4.52480523	     75.89035230	     44.75333976	      0.00000000	      0.00000000	      4.44213328	     -5.11226572	     -6.66846195	     28.30335914	     46.85969094	      0.00000000	      0.00000000
     29.70814286	     -4.21514470	     -5.35726977	      5.03557114	      1.07482688	      0.92744159	      0.47110427	      4.07472980	      4.28811141	    -16.47421699	     11.76399334	     11.76399334	     13.43241561	     -3.45786151	     -3.82800113	     38.10156603	     -9.92014572	      1.27733297	     41.70354574	     41.70354574	      8.88814076	    -18.37251038	     15.71873490	     -9.75716881	      4.69176718	      2.52404509	     28.02043879	    -15.36207566	     -4.67933298	     78.88649181	     44.69780106	      0.00000000	      0.00000000	      3.29024316	     -4.80294175	     -6.54007407	     26.20172898	     46.78094838	      0.00000000	      0.00000000
     29.71971429	     -4.37223447	     -5.13938165	      5.18169632	      1.07395036	      0.92669124	      0.47010872	      3.38123567	      4.09256459	    -16.56279367	     11.30487062	     11.30487062	     13.77779144	     -3.23889357	     -3.91591740	     38.08554234	     -8.93869949	      1.63934921	     37.53144108	     37.53144108	      8.97294399	    -17.07524516	     15.53155820	     -9.70762087	      4.50109792	      2.48967427	     30.67590479	    -15.15729697	     -4.73770768	     81.00046088	     44.64856893	      0.00000000	      0.00000000	      1.88374741	     -4.59169175	     -6.41715744	     25.06385794	     46.72654003	      0.00000000	      0.00000000
     29.73128571	     -4.46933407	     -5.10556514	      5.36919580	      1.07334845	      0.92576802	      0.46906251	      2.55386715	      4.09024703	    -16.97030795	     10.73591451	     10.73591451	     14.09582440	     -2.49172771	     -4.07429598	     38.01916557	     -8.24417708	      2.08318304	     33.56939451	     33.56939451	      8.90315055	    -14.97258546	     14.48237428	     -9.72057537	      4.55146595	      2.21528601	     33.23369773	    -14.83602078	     -4.39447980	     83.92934258	     44.56571305	      0.00000000	      0.00000000	      0.52564682	     -4.39259889	     -6.11584714	     23.58434013	     46.63570116	      0.00000000	      0.00000000
     29.74285714	     -4.69253099	     -4.96984140	      5.45302758	      1.07282659	      0.92461947	      0.46796951	      1.94299606	      3.95408436	    -17.11589137	     10.33761963	     10.33761963	     14.44435603	     -2.09517168	     -4.19574278	     38.01355046	     -7.57603850	      2.33717723	     29.84780395	     29.84780395	      9.00541248	    -12.48375875	     14.13616289	     -9.54317061	      4.47168946	      2.45367588	     35.68935453	    -14.88204316	     -4.32389296	     85.90431019	     44.51690438	      0.00000000	      0.00000000	     -0.72580066	     -4.22028446	     -5.92992876	     22.76752718	     46.57005461	      0.00000000	      0.00000000
     29.75442857	     -4.79053233	     -4.93388624	      5.53580372	      1.07262913	      0.92346488	      0.46684631	      1.13861189	      3.94085709	    -17.40149225	      9.85845302	      9.85845302	     14.80496022	     -1.45421799	     -4.31386802	     37.90410133	     -7.11500430	      2.47719661	     26.50797737	     26.50797737	      9.06851850	     -9.84563390	     13.68587988	     -9.52898748	      4.50823265	      2.45498073	     38.05395009	    -14.69408159	     -4.03132792	     88.34868587	     44.44751873	      0.00000000	      0.00000000	     -2.10751967	     -4.10926695	     -5.64568624	     21.96401070	     46.47823007	      0.00000000	      0.00000000
     29.76600000	     -4.97493117	     -4.96728023	      5.59173946	      1.07251658	      0.92206790	      0.46570543	      0.47685132	      3.98497170	    -17.65904514	      9.46743686	      9.46743686	     15.12237292	     -0.91827670	     -4.40206607	     37.94358929	     -6.74631311	      2.65514660	     23.63344699	     23.63344699	      9.06510090	     -7.55458409	     13.50667141	     -9.40146473	      4.60183124	      2.63807815	     40.39616792	    -14.66893398	     -3.82591779	     90.42876230	     44.39145751	      0.00000000	      0.00000000	     -3.37045559	     -3.96286244	     -5.38475530	     21.46912110	     46.38995330	      0.00000000	      0.00000000
     29.77757143	     -4.98379543	     -5.01842931	      5.62253852	      1.07290441	      0.92069888	      0.46442620	     -0.42383374	      4.01256192	    -18.27643277	      9.11118279	      9.11118279	     15.83747565	      0.45837356	     -3.86924727	     37.74788047	     -6.49790185	      2.58115472	     21.09533661	     21.09533661	      7.99562620	     -5.76407383	     10.68189046	     -9.46391380	      4.76650832	      3.10836453	     42.02868396	    -15.28899562	     -3.29453964	     94.17719704	     44.41046540	      0.00000000	      0.00000000	     -5.35206534	     -4.49580763	     -0.18232719	     22.53774421	     45.14060019	      0.00000000	      0.00000000
     29.78914286	     -5.22442803	     -5.06866504	      5.57543021	      1.07311902	      0.91904650	      0.46320953	     -0.97235896	      4.05562120	    -18.29542429	      8.84572431	      8.84572431	     16.14216224	      0.68461747	     -3.97325056	     37.94041326	     -6.25547427	      2.55247863	     19.34305728	     19.34305728	      7.96224509	     -4.54252597	     11.05839853	     -9.21215800	      4.84414143	      3.39470585	     44.31757661	    -15.20911733	     -3.30780047	     95.44210275	     44.38571953	      0.00000000	      0.00000000	     -6.56637458	     -4.39178836	      0.00335658	     22.22463546	     45.07977112	      0.00000000	      0.00000000
